<svg width="42" height="43" viewBox="0 0 42 43" fill="none" xmlns="http://www.w3.org/2000/svg">
<rect width="42" height="43" rx="4" fill="#AB070F"/>
<rect x="2" y="2" width="38" height="19" rx="3" fill="#F2F2F2"/>
<path d="M12.5194 8.169V15H10.4844V10.358L9.46139 10.523V8.653L12.5194 8.169ZM18.7615 14.241C18.2702 14.8203 17.5149 15.11 16.4955 15.11C15.4615 15.11 14.6989 14.824 14.2075 14.252C13.7235 13.6727 13.4815 12.8073 13.4815 11.656C13.4815 10.4827 13.7235 9.61 14.2075 9.038C14.6915 8.45867 15.4542 8.169 16.4955 8.169C17.5295 8.169 18.2885 8.45867 18.7725 9.038C19.2565 9.61 19.4985 10.4827 19.4985 11.656C19.4985 12.8 19.2529 13.6617 18.7615 14.241ZM15.7695 12.811C15.9162 13.0603 16.1582 13.185 16.4955 13.185C16.8255 13.185 17.0602 13.0603 17.1995 12.811C17.3462 12.5543 17.4195 12.1693 17.4195 11.656C17.4195 11.1207 17.3462 10.7247 17.1995 10.468C17.0602 10.2113 16.8255 10.083 16.4955 10.083C16.1509 10.083 15.9052 10.2113 15.7585 10.468C15.6192 10.7173 15.5495 11.1133 15.5495 11.656C15.5495 12.1693 15.6229 12.5543 15.7695 12.811ZM25.0914 14.582C24.6441 14.934 23.9474 15.11 23.0014 15.11C22.0628 15.11 21.3698 14.934 20.9224 14.582C20.4824 14.23 20.2624 13.702 20.2624 12.998C20.2624 12.6973 20.3284 12.4113 20.4604 12.14C20.5924 11.8613 20.7648 11.6523 20.9774 11.513C20.7941 11.3663 20.6548 11.183 20.5594 10.963C20.4641 10.743 20.4164 10.5083 20.4164 10.259C20.4164 9.59167 20.6254 9.07833 21.0434 8.719C21.4614 8.35233 22.1141 8.169 23.0014 8.169C24.7468 8.169 25.6194 8.86567 25.6194 10.259C25.6194 10.501 25.5681 10.743 25.4654 10.985C25.3701 11.2197 25.2308 11.4103 25.0474 11.557C25.2821 11.711 25.4581 11.9127 25.5754 12.162C25.7001 12.404 25.7624 12.6827 25.7624 12.998C25.7624 13.702 25.5388 14.23 25.0914 14.582ZM22.3304 10.314C22.3304 10.6293 22.4698 10.8127 22.7484 10.864L23.2324 10.974C23.5404 10.8493 23.6944 10.6293 23.6944 10.314C23.6944 9.918 23.4634 9.72 23.0014 9.72C22.7814 9.72 22.6128 9.77133 22.4954 9.874C22.3854 9.97667 22.3304 10.1233 22.3304 10.314ZM22.1874 12.877C22.1874 13.3243 22.4588 13.548 23.0014 13.548C23.2874 13.548 23.5001 13.4967 23.6394 13.394C23.7788 13.284 23.8484 13.1337 23.8484 12.943C23.8484 12.7817 23.8044 12.6533 23.7164 12.558C23.6284 12.4627 23.4854 12.393 23.2874 12.349L22.6824 12.217C22.3524 12.3123 22.1874 12.5323 22.1874 12.877ZM31.8077 14.241C31.3164 14.8203 30.561 15.11 29.5417 15.11C28.5077 15.11 27.745 14.824 27.2537 14.252C26.7697 13.6727 26.5277 12.8073 26.5277 11.656C26.5277 10.4827 26.7697 9.61 27.2537 9.038C27.7377 8.45867 28.5004 8.169 29.5417 8.169C30.5757 8.169 31.3347 8.45867 31.8187 9.038C32.3027 9.61 32.5447 10.4827 32.5447 11.656C32.5447 12.8 32.299 13.6617 31.8077 14.241ZM28.8157 12.811C28.9624 13.0603 29.2044 13.185 29.5417 13.185C29.8717 13.185 30.1064 13.0603 30.2457 12.811C30.3924 12.5543 30.4657 12.1693 30.4657 11.656C30.4657 11.1207 30.3924 10.7247 30.2457 10.468C30.1064 10.2113 29.8717 10.083 29.5417 10.083C29.197 10.083 28.9514 10.2113 28.8047 10.468C28.6654 10.7173 28.5957 11.1133 28.5957 11.656C28.5957 12.1693 28.669 12.5543 28.8157 12.811Z" fill="#AB070F"/>
<path d="M10.3934 31.41L9.31344 35H8.06344L6.71344 28.88H8.05344L8.85344 32.63L9.69344 29.72V28.88H10.7934L11.8334 32.63L12.6534 28.88H13.9834L12.6434 35H11.3934L10.3934 31.41ZM18.2437 34.79C17.837 34.9967 17.3037 35.1 16.6437 35.1C15.8703 35.1 15.2703 34.9 14.8437 34.5C14.417 34.1 14.2037 33.5133 14.2037 32.74C14.2037 31.9867 14.3903 31.41 14.7637 31.01C15.1437 30.6033 15.6903 30.4 16.4037 30.4C17.0437 30.4 17.5503 30.5767 17.9237 30.93C18.297 31.2833 18.4837 31.78 18.4837 32.42V33.2H15.4637C15.517 33.5333 15.6637 33.7833 15.9037 33.95C16.1437 34.11 16.5037 34.19 16.9837 34.19C17.4037 34.19 17.8237 34.1133 18.2437 33.96V34.79ZM15.6837 31.61C15.537 31.7967 15.4637 32.06 15.4637 32.4H17.3037V32.16C17.3037 31.9 17.2337 31.6967 17.0937 31.55C16.9537 31.3967 16.7337 31.32 16.4337 31.32C16.087 31.32 15.837 31.4167 15.6837 31.61ZM23.5897 34.5C23.2497 34.9 22.773 35.1 22.1597 35.1C21.6197 35.1 21.1664 34.9367 20.7997 34.61L20.7297 35H19.5497V28.6H20.9197V30.7C21.2397 30.5 21.6364 30.4 22.1097 30.4C22.783 30.4 23.283 30.59 23.6097 30.97C23.9364 31.35 24.0997 31.93 24.0997 32.71C24.0997 33.5033 23.9297 34.1 23.5897 34.5ZM20.9197 33.65C21.153 33.8833 21.4364 34 21.7697 34C22.0964 34 22.3364 33.8967 22.4897 33.69C22.643 33.4833 22.7197 33.1633 22.7197 32.73C22.7197 32.29 22.6397 31.9767 22.4797 31.79C22.3264 31.5967 22.0864 31.5 21.7597 31.5C21.433 31.5 21.153 31.6 20.9197 31.8V33.65ZM29.6252 34.27C29.1852 34.7567 28.5152 35 27.6152 35H25.1552V28.88H27.6152C28.5085 28.88 29.1752 29.1267 29.6152 29.62C30.0618 30.1067 30.2852 30.8933 30.2852 31.98C30.2852 33.02 30.0652 33.7833 29.6252 34.27ZM28.3352 30.31C28.1218 30.1767 27.8185 30.11 27.4252 30.11H26.5252V33.85H27.4252C27.7718 33.85 28.0485 33.8 28.2552 33.7C28.4685 33.5933 28.6285 33.4067 28.7352 33.14C28.8485 32.8667 28.9052 32.48 28.9052 31.98C28.9052 31.5267 28.8618 31.1667 28.7752 30.9C28.6952 30.6333 28.5485 30.4367 28.3352 30.31ZM35.437 33.85V35H31.327V28.88H32.697V33.85H35.437Z" fill="white"/>
</svg>
