<svg width="20" height="21" viewBox="0 0 20 21" fill="none" xmlns="http://www.w3.org/2000/svg">
<path d="M10.138 12.9987C10.3003 12.999 10.4575 12.9425 10.5824 12.839L14.7491 9.36676C14.8909 9.24888 14.9801 9.0795 14.9971 8.89587C15.014 8.71224 14.9573 8.52941 14.8394 8.38759C14.7215 8.24577 14.5521 8.15659 14.3685 8.13966C14.1849 8.12273 14.0021 8.17944 13.8602 8.29731L10.138 11.4084L6.41576 8.40842C6.34472 8.35074 6.26299 8.30766 6.17525 8.28167C6.08752 8.25567 5.99551 8.24727 5.90452 8.25695C5.81353 8.26663 5.72534 8.2942 5.64504 8.33807C5.56474 8.38194 5.49389 8.44125 5.43659 8.51259C5.37299 8.58399 5.32482 8.66776 5.2951 8.75864C5.26539 8.84953 5.25476 8.94557 5.26389 9.04075C5.27302 9.13594 5.3017 9.22821 5.34815 9.31179C5.39459 9.39537 5.4578 9.46846 5.53381 9.52648L9.70049 12.8806C9.82903 12.9678 9.98307 13.0094 10.138 12.9987Z" fill="#9DA5B3"/>
</svg>
