<svg width="16" height="14" viewBox="0 0 16 14" fill="none" xmlns="http://www.w3.org/2000/svg">
<path d="M12.5024 13.6502H3.49753C3.11733 13.6948 2.73208 13.6518 2.37062 13.5244C2.00915 13.397 1.68081 13.1884 1.41017 12.9143C1.13953 12.6402 0.933588 12.3077 0.807751 11.9417C0.681915 11.5756 0.639441 11.1854 0.683508 10.8004V3.2009C0.639441 2.81586 0.681915 2.42572 0.807751 2.05965C0.933588 1.69358 1.13953 1.36107 1.41017 1.08699C1.68081 0.812903 2.00915 0.604342 2.37062 0.476905C2.73208 0.349468 3.11733 0.306454 3.49753 0.351081H12.5024C12.8826 0.306454 13.2678 0.349468 13.6293 0.476905C13.9908 0.604342 14.3191 0.812903 14.5897 1.08699C14.8604 1.36107 15.0663 1.69358 15.1922 2.05965C15.318 2.42572 15.3605 2.81586 15.3164 3.2009V10.8004C15.3605 11.1854 15.318 11.5756 15.1922 11.9417C15.0663 12.3077 14.8604 12.6402 14.5897 12.9143C14.3191 13.1884 13.9908 13.397 13.6293 13.5244C13.2678 13.6518 12.8826 13.6948 12.5024 13.6502ZM3.49753 1.49101C2.31414 1.49101 1.80912 2.00245 1.80912 3.2009V10.8004C1.80912 11.9988 2.31414 12.5103 3.49753 12.5103H12.5024C13.6858 12.5103 14.1908 11.9988 14.1908 10.8004V3.2009C14.1908 2.00245 13.6858 1.49101 12.5024 1.49101H3.49753ZM12.3148 7.57061H11.1892C11.1892 7.77217 11.1101 7.96546 10.9694 8.10798C10.8287 8.2505 10.6378 8.33057 10.4388 8.33057C10.2398 8.33057 10.0489 8.2505 9.90816 8.10798C9.76743 7.96546 9.68837 7.77217 9.68837 7.57061V6.43069C9.68837 6.22914 9.76743 6.03584 9.90816 5.89332C10.0489 5.7508 10.2398 5.67074 10.4388 5.67074C10.6378 5.67074 10.8287 5.7508 10.9694 5.89332C11.1101 6.03584 11.1892 6.22914 11.1892 6.43069H12.3148C12.3148 5.92681 12.1171 5.44357 11.7653 5.08727C11.4135 4.73098 10.9363 4.53081 10.4388 4.53081C9.94123 4.53081 9.46406 4.73098 9.11224 5.08727C8.76041 5.44357 8.56276 5.92681 8.56276 6.43069V7.57061C8.56276 8.07449 8.76041 8.55773 9.11224 8.91403C9.46406 9.27033 9.94123 9.47049 10.4388 9.47049C10.9363 9.47049 11.4135 9.27033 11.7653 8.91403C12.1171 8.55773 12.3148 8.07449 12.3148 7.57061ZM7.43716 7.57061H6.31155C6.31155 7.77217 6.23249 7.96546 6.09176 8.10798C5.95103 8.2505 5.76016 8.33057 5.56114 8.33057C5.36212 8.33057 5.17125 8.2505 5.03053 8.10798C4.8898 7.96546 4.81074 7.77217 4.81074 7.57061V6.43069C4.81074 6.22914 4.8898 6.03584 5.03053 5.89332C5.17125 5.7508 5.36212 5.67074 5.56114 5.67074C5.76016 5.67074 5.95103 5.7508 6.09176 5.89332C6.23249 6.03584 6.31155 6.22914 6.31155 6.43069H7.43716C7.43716 5.92681 7.2395 5.44357 6.88768 5.08727C6.53586 4.73098 6.05869 4.53081 5.56114 4.53081C5.06359 4.53081 4.58642 4.73098 4.2346 5.08727C3.88278 5.44357 3.68513 5.92681 3.68513 6.43069V7.57061C3.68513 8.07449 3.88278 8.55773 4.2346 8.91403C4.58642 9.27033 5.06359 9.47049 5.56114 9.47049C6.05869 9.47049 6.53586 9.27033 6.88768 8.91403C7.2395 8.55773 7.43716 8.07449 7.43716 7.57061Z" fill="white"/>
</svg>
