<svg width="24" height="24" viewBox="0 0 24 24" fill="none" xmlns="http://www.w3.org/2000/svg">
<path fill-rule="evenodd" clip-rule="evenodd" d="M12 8.25C12.4142 8.25 12.75 8.58579 12.75 9V14C12.75 14.4142 12.4142 14.75 12 14.75C11.5858 14.75 11.25 14.4142 11.25 14V9C11.25 8.58579 11.5858 8.25 12 8.25Z" fill="#FB7800"/>
<path fill-rule="evenodd" clip-rule="evenodd" d="M12 3.34277C11.2002 3.34277 10.2323 3.89167 9.41591 5.36399L3.35593 16.264C2.59543 17.6356 2.62795 18.7174 3.03556 19.4119C3.44274 20.1056 4.36976 20.6603 5.94 20.6603H12C12.0418 20.6603 12.0828 20.6637 12.1228 20.6703H18.06C19.6245 20.6703 20.5524 20.116 20.9611 19.4213C21.3698 18.7263 21.404 17.6445 20.6441 16.274L14.5844 5.36461C13.768 3.89229 12.7998 3.34277 12 3.34277ZM11.8772 22.1603H5.94C4.04024 22.1603 2.50726 21.475 1.74195 20.1712C0.977056 18.8681 1.12457 17.195 2.04408 15.5366L8.1041 4.63656C8.10397 4.63678 8.10422 4.63634 8.1041 4.63656C9.06765 2.89927 10.45 1.84277 12 1.84277C13.55 1.84277 14.932 2.89863 15.8956 4.63594L18.8356 9.92594L21.9557 15.5462C22.8758 17.2057 23.0202 18.8792 22.254 20.1818C21.4876 21.4845 19.9555 22.1703 18.06 22.1703H12C11.9582 22.1703 11.9172 22.1669 11.8772 22.1603Z" fill="#FB7800"/>
<path fill-rule="evenodd" clip-rule="evenodd" d="M10.9945 17C10.9945 16.4477 11.4422 16 11.9945 16H12.0035C12.5558 16 13.0035 16.4477 13.0035 17C13.0035 17.5523 12.5558 18 12.0035 18H11.9945C11.4422 18 10.9945 17.5523 10.9945 17Z" fill="#FB7800"/>
</svg>
