<svg width="16" height="16" viewBox="0 0 16 16" fill="none" xmlns="http://www.w3.org/2000/svg">
<g clip-path="url(#clip0_9318_3306)">
<path d="M12.3944 6.07272C12.3512 6.01866 12.2989 6.02928 12.2715 6.04031C12.2485 6.04963 12.1959 6.07938 12.2032 6.15394C12.2119 6.24347 12.2168 6.33475 12.2178 6.42528C12.2217 6.80084 12.071 7.16878 11.8044 7.43475C11.5396 7.699 11.1912 7.84138 10.8203 7.83725C10.3136 7.83078 9.89332 7.5665 9.60492 7.07297C9.36645 6.66488 9.47126 6.13853 9.58223 5.58125C9.64717 5.25506 9.71432 4.91775 9.71432 4.59672C9.71432 2.09706 8.03388 0.654938 7.0322 0.0177813C7.01148 0.004625 6.99176 0 6.97429 0C6.94588 0 6.92338 0.01225 6.91229 0.01975C6.89079 0.0343125 6.85638 0.0675 6.86745 0.12625C7.25032 2.15944 6.10832 3.38228 4.89926 4.67691C3.65301 6.01138 2.24048 7.52391 2.24048 10.2518C2.24048 13.4214 4.81913 16.0001 7.98876 16.0001C10.5985 16.0001 12.8995 14.1806 13.5842 11.5754C14.0512 9.79903 13.5619 7.53628 12.3944 6.07272ZM8.13217 14.7731C7.33848 14.8093 6.58367 14.5246 6.00713 13.9734C5.43679 13.428 5.10967 12.6669 5.10967 11.8852C5.10967 10.4183 5.67054 9.34144 7.1791 7.91181C7.20379 7.88841 7.22907 7.881 7.2511 7.881C7.27107 7.881 7.28838 7.88709 7.30029 7.89281C7.32538 7.90491 7.36663 7.93484 7.36107 7.99959C7.30713 8.62725 7.30807 9.14822 7.36382 9.54809C7.50632 10.5695 8.25404 11.2558 9.22451 11.2558C9.70032 11.2558 10.1535 11.0767 10.5007 10.7516C10.5141 10.7387 10.5304 10.7293 10.5483 10.7242C10.5662 10.7191 10.585 10.7184 10.6032 10.7223C10.6261 10.7272 10.6567 10.7412 10.6727 10.7799C10.8166 11.1274 10.8902 11.4963 10.8913 11.8763C10.8959 13.4052 9.65817 14.7047 8.13217 14.7731Z" fill="white"/>
</g>
<defs>
<clipPath id="clip0_9318_3306">
<rect width="16" height="16" fill="white"/>
</clipPath>
</defs>
</svg>
