<svg width="22" height="22" viewBox="0 0 22 22" fill="none" xmlns="http://www.w3.org/2000/svg">
<path fill-rule="evenodd" clip-rule="evenodd" d="M0.25 11C0.25 5.08579 5.08579 0.25 11 0.25C16.9142 0.25 21.75 5.08579 21.75 11C21.75 16.9142 16.9142 21.75 11 21.75C5.08579 21.75 0.25 16.9142 0.25 11ZM11 1.75C5.91421 1.75 1.75 5.91421 1.75 11C1.75 16.0858 5.91421 20.25 11 20.25C16.0858 20.25 20.25 16.0858 20.25 11C20.25 5.91421 16.0858 1.75 11 1.75Z" fill="#9DA5B3"/>
<path fill-rule="evenodd" clip-rule="evenodd" d="M11 6.25C11.4142 6.25 11.75 6.58579 11.75 7V12C11.75 12.4142 11.4142 12.75 11 12.75C10.5858 12.75 10.25 12.4142 10.25 12V7C10.25 6.58579 10.5858 6.25 11 6.25Z" fill="#9DA5B3"/>
<path fill-rule="evenodd" clip-rule="evenodd" d="M9.99414 15C9.99414 14.4477 10.4419 14 10.9941 14H11.0031C11.5554 14 12.0031 14.4477 12.0031 15C12.0031 15.5523 11.5554 16 11.0031 16H10.9941C10.4419 16 9.99414 15.5523 9.99414 15Z" fill="#9DA5B3"/>
</svg>
