<svg width="12" height="16" viewBox="0 0 12 16" fill="none" xmlns="http://www.w3.org/2000/svg">
<path fill-rule="evenodd" clip-rule="evenodd" d="M2.83337 3.99967C2.83337 2.2502 4.25056 0.833008 6.00004 0.833008C7.74952 0.833008 9.16671 2.2502 9.16671 3.99967V7.66634C9.16671 9.41582 7.74952 10.833 6.00004 10.833C4.25056 10.833 2.83337 9.41582 2.83337 7.66634V3.99967ZM6.00004 1.83301C4.80285 1.83301 3.83337 2.80248 3.83337 3.99967V7.66634C3.83337 8.86353 4.80285 9.83301 6.00004 9.83301C7.19723 9.83301 8.16671 8.86353 8.16671 7.66634V3.99967C8.16671 2.80248 7.19723 1.83301 6.00004 1.83301Z" fill="white"/>
<path fill-rule="evenodd" clip-rule="evenodd" d="M0.89978 5.93262C1.17592 5.93262 1.39978 6.15647 1.39978 6.43262V7.56595C1.39978 10.1031 3.46259 12.166 5.99978 12.166C8.53697 12.166 10.5998 10.1031 10.5998 7.56595V6.43262C10.5998 6.15647 10.8236 5.93262 11.0998 5.93262C11.3759 5.93262 11.5998 6.15647 11.5998 6.43262V7.56595C11.5998 10.6554 9.08926 13.166 5.99978 13.166C2.9103 13.166 0.39978 10.6554 0.39978 7.56595V6.43262C0.39978 6.15647 0.623638 5.93262 0.89978 5.93262Z" fill="white"/>
<path fill-rule="evenodd" clip-rule="evenodd" d="M6.75434 4.75553C6.26547 4.57628 5.73413 4.57628 5.24526 4.75553C4.986 4.8506 4.69876 4.71748 4.6037 4.45822C4.50863 4.19896 4.64174 3.91172 4.90101 3.81666C5.61214 3.55591 6.38746 3.55591 7.0986 3.81666C7.35786 3.91172 7.49097 4.19896 7.39591 4.45822C7.30084 4.71748 7.0136 4.8506 6.75434 4.75553Z" fill="white"/>
<path fill-rule="evenodd" clip-rule="evenodd" d="M6.41207 6.1833C6.14243 6.11208 5.86377 6.11208 5.59413 6.1833C5.32714 6.25383 5.05354 6.09456 4.98301 5.82758C4.91249 5.56059 5.07175 5.28699 5.33874 5.21646C5.77576 5.10102 6.23043 5.10102 6.66746 5.21646C6.93445 5.28699 7.09371 5.56059 7.02319 5.82758C6.95266 6.09456 6.67906 6.25383 6.41207 6.1833Z" fill="white"/>
<path fill-rule="evenodd" clip-rule="evenodd" d="M6 12.166C6.27614 12.166 6.5 12.3899 6.5 12.666V14.666C6.5 14.9422 6.27614 15.166 6 15.166C5.72386 15.166 5.5 14.9422 5.5 14.666V12.666C5.5 12.3899 5.72386 12.166 6 12.166Z" fill="white"/>
</svg>
