<svg width="20" height="20" viewBox="0 0 20 20" fill="none" xmlns="http://www.w3.org/2000/svg">
<path fill-rule="evenodd" clip-rule="evenodd" d="M4.39233 7.42481C4.39233 4.32129 6.91384 1.7998 10.0174 1.7998C13.1126 1.7998 15.6424 4.32963 15.6424 7.42481V9.83314C15.6424 10.0122 15.6829 10.2743 15.7597 10.5543C15.8356 10.8309 15.9336 11.0768 16.0228 11.2329L16.9783 12.8199C17.733 14.0776 17.1297 15.716 15.7395 16.1762C12.0195 17.4189 8.00586 17.4188 4.28595 16.1759L4.28363 16.1751C3.58162 15.9375 3.05515 15.4463 2.81976 14.8106C2.58409 14.1741 2.66426 13.4578 3.04846 12.8192L4.00549 11.2298L4.00612 11.2287C4.09738 11.0753 4.19734 10.8303 4.27448 10.5524C4.35186 10.2737 4.39233 10.012 4.39233 9.83314V7.42481ZM10.0174 3.0498C7.60419 3.0498 5.64234 5.01165 5.64234 7.42481V9.83314C5.64234 10.1626 5.57448 10.5426 5.47894 10.8868C5.38334 11.2311 5.24609 11.5899 5.07918 11.8698L5.07778 11.8722L4.11953 13.4637C3.91215 13.8084 3.90058 14.1297 3.99198 14.3765C4.08359 14.6239 4.30262 14.8616 4.68326 14.9908C8.14606 16.1474 11.8816 16.1473 15.3443 14.9903L15.3462 14.9897C15.9718 14.7829 16.2515 14.0388 15.9067 13.4635L14.9426 11.8622C14.7825 11.5847 14.6484 11.2285 14.5542 10.8849C14.4602 10.542 14.3924 10.1624 14.3924 9.83314V7.42481C14.3924 5.01998 12.4222 3.0498 10.0174 3.0498Z" fill="white"/>
<path fill-rule="evenodd" clip-rule="evenodd" d="M7.8932 2.43816C8.22607 1.58876 9.0525 0.991211 10.0168 0.991211C10.9811 0.991211 11.8075 1.58876 12.1404 2.43816C12.2273 2.65989 12.1806 2.91173 12.02 3.08761C11.8595 3.26348 11.6129 3.33282 11.3842 3.26643C11.153 3.19931 10.9197 3.14867 10.6832 3.12L10.6809 3.11972C9.96059 3.02968 9.27995 3.08312 8.64958 3.26637C8.42086 3.33285 8.17423 3.26356 8.01361 3.08769C7.85299 2.91181 7.80629 2.65993 7.8932 2.43816Z" fill="white"/>
<path fill-rule="evenodd" clip-rule="evenodd" d="M8.14307 15.8828C8.14307 16.3932 8.35541 16.8696 8.69335 17.2075C9.03129 17.5455 9.50765 17.7578 10.0181 17.7578C11.0479 17.7578 11.8931 16.9126 11.8931 15.8828H13.1431C13.1431 17.603 11.7383 19.0078 10.0181 19.0078C9.16184 19.0078 8.37153 18.6535 7.80946 18.0914C7.2474 17.5294 6.89307 16.739 6.89307 15.8828H8.14307Z" fill="white"/>
</svg>
