<svg width="18" height="18" viewBox="0 0 18 18" fill="none" xmlns="http://www.w3.org/2000/svg">
<path fill-rule="evenodd" clip-rule="evenodd" d="M8.97553 1.29199C4.71831 1.29199 1.26716 4.74313 1.26716 9.00033C1.26716 13.2575 4.71831 16.7087 8.97553 16.7087C13.2327 16.7087 16.6839 13.2575 16.6839 9.00033C16.6839 4.74313 13.2327 1.29199 8.97553 1.29199ZM0.0171509 9.00033C0.0171509 4.05277 4.02795 0.0419922 8.97553 0.0419922C13.9231 0.0419922 17.9339 4.05277 17.9339 9.00033C17.9339 13.9479 13.9231 17.9587 8.97553 17.9587C4.02795 17.9587 0.0171509 13.9479 0.0171509 9.00033Z" fill="white"/>
<path fill-rule="evenodd" clip-rule="evenodd" d="M7.39624 6.57858C7.16268 6.71359 6.90845 7.06648 6.90845 7.79998V10.6C6.90845 11.3335 7.16268 11.6864 7.39624 11.8214C7.62953 11.9562 8.06132 12.0003 8.6956 11.6339C8.69554 11.634 8.69566 11.6339 8.6956 11.6339L11.1118 10.2342C11.7461 9.86773 11.9251 9.47059 11.9251 9.19998C11.9251 8.92937 11.7467 8.53259 11.1125 8.16615L8.69579 6.76615C8.69569 6.76609 8.69589 6.76621 8.69579 6.76615C8.06158 6.39981 7.62951 6.44374 7.39624 6.57858ZM6.77067 5.49638C7.52486 5.06041 8.45551 5.18368 9.32114 5.68381L11.7378 7.08381C11.7377 7.08377 11.7379 7.08386 11.7378 7.08381C12.6035 7.58404 13.1752 8.32901 13.1752 9.19998C13.1752 10.071 12.6037 10.8158 11.7379 11.3161C11.7379 11.3161 11.738 11.3161 11.7379 11.3161L9.32176 12.7158C8.45613 13.2159 7.52486 13.3395 6.77067 12.9036C6.01672 12.4678 5.65845 11.5998 5.65845 10.6V7.79998C5.65845 6.80015 6.01672 5.9322 6.77067 5.49638Z" fill="white"/>
</svg>
