<svg width="24" height="24" viewBox="0 0 24 24" fill="none" xmlns="http://www.w3.org/2000/svg">
<path fill-rule="evenodd" clip-rule="evenodd" d="M12.0007 6.98047C10.5964 6.98047 9.4707 8.11319 9.4707 9.51047C9.4707 10.8593 10.5243 11.959 11.8594 12.0289C11.9513 12.0214 12.0494 12.0207 12.1446 12.0287C13.4739 11.9577 14.522 10.8622 14.5307 9.50835C14.5296 8.11353 13.3958 6.98047 12.0007 6.98047ZM7.9707 9.51047C7.9707 7.28775 9.765 5.48047 12.0007 5.48047C14.2249 5.48047 16.0307 7.28626 16.0307 9.51047V9.51471H16.0307C16.0184 11.6831 14.3129 13.4562 12.1463 13.53C12.1023 13.5315 12.0582 13.5292 12.0146 13.5229C12.0189 13.5235 12.0198 13.5235 12.017 13.5233C12.0144 13.5231 12.0101 13.523 12.0045 13.523C11.9922 13.523 11.9808 13.5238 11.9737 13.5247C11.9344 13.5296 11.8948 13.5314 11.8551 13.53C9.69231 13.4563 7.9707 11.6859 7.9707 9.51047Z" fill="white"/>
<path fill-rule="evenodd" clip-rule="evenodd" d="M7.44686 17.4231C6.67666 17.9418 6.24615 18.5354 6.07839 19.0996C7.68458 20.4446 9.74374 21.2496 12 21.2496C14.2563 21.2496 16.3154 20.4446 17.9216 19.0996C17.7538 18.5352 17.323 17.9413 16.5521 17.4223C15.3419 16.6129 13.6963 16.1846 12.0075 16.1846C10.3195 16.1846 8.66811 16.6126 7.44686 17.4231ZM12.0075 14.6846C13.9234 14.6846 15.8774 15.1661 17.3871 16.1762L17.3887 16.1773C18.5914 16.9866 19.3565 18.085 19.4858 19.3002C19.511 19.5371 19.4222 19.7718 19.2465 19.9327C17.3338 21.6843 14.7949 22.7496 12 22.7496C9.20512 22.7496 6.66625 21.6843 4.7535 19.9327C4.57784 19.7718 4.48903 19.5371 4.51422 19.3002C4.6435 18.085 5.40865 16.9866 6.61131 16.1773L6.61504 16.1748L6.61504 16.1748C8.1336 15.1662 10.0914 14.6846 12.0075 14.6846Z" fill="white"/>
<path fill-rule="evenodd" clip-rule="evenodd" d="M12 2.75C6.89137 2.75 2.75 6.89137 2.75 12C2.75 17.1086 6.89137 21.25 12 21.25C17.1086 21.25 21.25 17.1086 21.25 12C21.25 6.89137 17.1086 2.75 12 2.75ZM1.25 12C1.25 6.06294 6.06294 1.25 12 1.25C17.9371 1.25 22.75 6.06294 22.75 12C22.75 17.9371 17.9371 22.75 12 22.75C6.06294 22.75 1.25 17.9371 1.25 12Z" fill="white"/>
</svg>
