<svg width="20" height="20" viewBox="0 0 20 20" fill="none" xmlns="http://www.w3.org/2000/svg">
<path fill-rule="evenodd" clip-rule="evenodd" d="M9.58345 2.29199C5.55636 2.29199 2.29175 5.55658 2.29175 9.58366C2.29175 13.6107 5.55636 16.8753 9.58345 16.8753C13.6105 16.8753 16.8752 13.6107 16.8752 9.58366C16.8752 5.55658 13.6105 2.29199 9.58345 2.29199ZM1.04175 9.58366C1.04175 4.86623 4.866 1.04199 9.58345 1.04199C14.3009 1.04199 18.1252 4.86623 18.1252 9.58366C18.1252 14.3011 14.3009 18.1253 9.58345 18.1253C4.866 18.1253 1.04175 14.3011 1.04175 9.58366Z" fill="white"/>
<path fill-rule="evenodd" clip-rule="evenodd" d="M16.2248 16.2251C16.4689 15.981 16.8646 15.981 17.1087 16.2251L18.7754 17.8917C19.0194 18.1358 19.0194 18.5315 18.7754 18.7756C18.5313 19.0197 18.1356 19.0197 17.8915 18.7756L16.2248 17.1089C15.9807 16.8649 15.9807 16.4691 16.2248 16.2251Z" fill="white"/>
</svg>
