<svg width="25" height="25" viewBox="0 0 25 25" fill="none" xmlns="http://www.w3.org/2000/svg">
<path d="M20.3113 15.5796C19.6027 15.5798 18.9046 15.7496 18.2751 16.075C17.6457 16.4003 17.1033 16.8716 16.6933 17.4495L9.41614 13.8113C9.55329 13.384 9.62743 12.9289 9.62743 12.457C9.62743 11.9852 9.55329 11.5296 9.41614 11.1023L16.6929 7.46417C17.1027 8.04224 17.645 8.51371 18.2745 8.83911C18.904 9.16451 19.6023 9.33437 20.3109 9.33446C22.7589 9.33446 24.75 7.34332 24.75 4.89575C24.75 2.44817 22.7589 0.457031 20.3113 0.457031C17.8637 0.457031 15.8726 2.44817 15.8726 4.89575C15.8726 5.24117 15.9124 5.5776 15.9874 5.90032L8.58471 9.60146C8.16864 9.10555 7.64898 8.70682 7.06227 8.43331C6.47556 8.1598 5.83605 8.01815 5.18871 8.01832C2.74114 8.01832 0.75 10.0095 0.75 12.457C0.75 14.9046 2.74114 16.8957 5.18871 16.8957C6.54986 16.8957 7.77 16.2799 8.58471 15.3122L15.987 19.0137C15.9105 19.3431 15.872 19.6802 15.8721 20.0183C15.8726 22.4659 17.8637 24.457 20.3113 24.457C22.7589 24.457 24.75 22.4659 24.75 20.0183C24.75 17.5707 22.7589 15.5796 20.3113 15.5796ZM20.3113 2.17132C21.8134 2.17132 23.0357 3.3936 23.0357 4.89575C23.0357 6.39789 21.8134 7.62017 20.3113 7.62017C18.8091 7.62017 17.5873 6.39789 17.5873 4.89575C17.5873 3.3936 18.8091 2.17132 20.3113 2.17132ZM5.18871 15.1815C4.46639 15.1807 3.77389 14.8934 3.26313 14.3826C2.75237 13.8719 2.46508 13.1794 2.46429 12.457C2.46429 10.9549 3.68657 9.7326 5.18871 9.7326C6.69086 9.7326 7.91314 10.9549 7.91314 12.457C7.91235 13.1794 7.62506 13.8719 7.1143 14.3826C6.60354 14.8934 5.91103 15.1807 5.18871 15.1815ZM20.3113 22.7427C18.8091 22.7427 17.5873 21.5205 17.5873 20.0183C17.5873 18.5162 18.8096 17.2943 20.3113 17.2943C21.0335 17.2951 21.726 17.5823 22.2367 18.093C22.7475 18.6037 23.0348 19.2961 23.0357 20.0183C23.0348 20.7406 22.7475 21.433 22.2367 21.9438C21.726 22.4545 21.0336 22.7418 20.3113 22.7427Z" fill="#5A5E66"/>
</svg>
