<svg width="29" height="29" viewBox="0 0 29 29" fill="none" xmlns="http://www.w3.org/2000/svg">
<path d="M28.4575 12.2126L22.2285 18.2846L23.6995 26.8606C23.731 27.0445 23.7105 27.2336 23.6402 27.4064C23.5698 27.5792 23.4526 27.7289 23.3016 27.8386C23.1506 27.9482 22.972 28.0135 22.7859 28.0269C22.5998 28.0404 22.4137 28.0015 22.2485 27.9146L14.5465 23.8656L6.84553 27.9136C6.68039 28.0005 6.49424 28.0394 6.30815 28.0259C6.12205 28.0125 5.94342 27.9472 5.79246 27.8376C5.64151 27.7279 5.52424 27.5782 5.45391 27.4054C5.38359 27.2326 5.36302 27.0435 5.39453 26.8596L6.86553 18.2836L0.635534 12.2126C0.501812 12.0823 0.407232 11.9172 0.362501 11.736C0.31777 11.5547 0.324673 11.3646 0.38243 11.187C0.440187 11.0095 0.546491 10.8517 0.689308 10.7314C0.832126 10.6112 1.00575 10.5333 1.19053 10.5066L9.79953 9.25663L13.6495 1.45463C13.9865 0.771633 15.1065 0.771633 15.4435 1.45463L19.2935 9.25663L27.9025 10.5066C28.0869 10.534 28.26 10.6122 28.4023 10.7326C28.5446 10.8529 28.6506 11.0106 28.7083 11.1878C28.7659 11.365 28.773 11.5548 28.7287 11.7359C28.6844 11.9169 28.5905 12.082 28.4575 12.2126Z" fill="#5A5E66"/>
</svg>
