<svg width="20" height="20" viewBox="0 0 20 20" fill="none" xmlns="http://www.w3.org/2000/svg">
<path fill-rule="evenodd" clip-rule="evenodd" d="M4.25842 5.52539C3.17859 5.52539 2.29175 6.41222 2.29175 7.49205V16.9587C2.29175 17.4246 2.45339 17.6022 2.54919 17.6585C2.64562 17.7152 2.88072 17.7699 3.28888 17.5453C3.28927 17.5451 3.28967 17.5449 3.29006 17.5447L6.56656 15.7188C6.85612 15.5603 7.1951 15.4983 7.50011 15.4983C7.80512 15.4983 8.1441 15.5603 8.43365 15.7189L8.4377 15.7211L11.7102 17.5447C11.7105 17.5449 11.7109 17.5451 11.7113 17.5453C12.1195 17.77 12.3546 17.7152 12.451 17.6585C12.5468 17.6022 12.7085 17.4246 12.7085 16.9587V7.49205C12.7085 6.41222 11.8216 5.52539 10.7418 5.52539H4.25842ZM1.04175 7.49205C1.04175 5.72187 2.48823 4.27539 4.25842 4.27539H10.7418C12.512 4.27539 13.9585 5.72187 13.9585 7.49205V16.9587C13.9585 17.7012 13.6868 18.3819 13.0847 18.736C12.4833 19.0897 11.7562 18.9974 11.1068 18.6394L11.1042 18.638L7.83326 16.8152C7.8328 16.815 7.83234 16.8147 7.83188 16.8145C7.77101 16.7816 7.65229 16.7483 7.50011 16.7483C7.34793 16.7483 7.22921 16.7816 7.16834 16.8145C7.16788 16.8147 7.16742 16.815 7.16696 16.8152L3.89599 18.638L3.89345 18.6394C3.244 18.9974 2.51696 19.0897 1.91556 18.736C1.31345 18.3819 1.04175 17.7012 1.04175 16.9587V7.49205Z" fill="white"/>
<path fill-rule="evenodd" clip-rule="evenodd" d="M9.25842 2.29199C8.17859 2.29199 7.29175 3.17882 7.29175 4.25865V4.27533H10.7418C12.512 4.27533 13.9585 5.72181 13.9585 7.49198V12.7751L16.7102 14.3113C16.7106 14.3115 16.7111 14.3118 16.7116 14.3121C17.1196 14.5365 17.3546 14.4818 17.451 14.4251C17.5468 14.3688 17.7085 14.1912 17.7085 13.7253V4.25865C17.7085 3.17882 16.8216 2.29199 15.7418 2.29199H9.25842ZM6.04175 4.25865C6.04175 2.48847 7.48823 1.04199 9.25842 1.04199H15.7418C17.512 1.04199 18.9585 2.48847 18.9585 4.25865V13.7253C18.9585 14.4678 18.6868 15.1485 18.0847 15.5026C17.4833 15.8563 16.7562 15.764 16.1068 15.406L16.1038 15.4044L13.0288 13.6877C12.831 13.5773 12.7084 13.3685 12.7084 13.142V7.49198C12.7084 6.41216 11.8216 5.52533 10.7418 5.52533H6.66675C6.32157 5.52533 6.04175 5.24551 6.04175 4.90033V4.25865Z" fill="white"/>
<path fill-rule="evenodd" clip-rule="evenodd" d="M5.2085 10C5.2085 9.65482 5.48832 9.375 5.8335 9.375H9.16685C9.51203 9.375 9.79185 9.65482 9.79185 10C9.79185 10.3452 9.51203 10.625 9.16685 10.625H5.8335C5.48832 10.625 5.2085 10.3452 5.2085 10Z" fill="white"/>
</svg>
